<?xml version="1.0" standalone="no"?>
<!DOCTYPE svg PUBLIC "-//W3C//DTD SVG 20010904//EN"
 "http://www.w3.org/TR/2001/REC-SVG-20010904/DTD/svg10.dtd">
<svg version="1.0" xmlns="http://www.w3.org/2000/svg"
 width="260.000000pt" height="260.000000pt" viewBox="0 0 260.000000 260.000000"
 preserveAspectRatio="xMidYMid meet">
<metadata>
Created by potrace 1.14, written by Peter Selinger 2001-2017
</metadata>
<g transform="translate(0.000000,260.000000) scale(0.100000,-0.100000)"
fill="#000000" stroke="none">
<path d="M1085 2570 c-466 -80 -856 -413 -1004 -856 -17 -50 -33 -108 -37
-130 -3 -21 -8 -42 -10 -46 -18 -29 -26 -345 -10 -423 l8 -40 15 30 c65 127
197 301 318 415 95 90 251 210 273 210 6 0 12 4 14 8 5 14 222 129 324 172 32
14 32 13 38 147 7 184 213 283 362 175 l39 -28 33 19 c84 50 210 -2 228 -93 5
-24 9 -25 82 -28 92 -3 183 -25 237 -57 72 -42 100 -92 100 -180 0 -35 -2 -65
-5 -68 -3 -2 -36 -7 -74 -11 -237 -22 -573 -134 -870 -289 -477 -250 -786
-549 -835 -810 -22 -119 15 -242 98 -319 191 -181 432 -300 694 -343 77 -13
341 -14 392 -2 11 2 38 7 60 11 56 9 239 68 243 78 2 4 8 8 13 8 16 0 96 38
152 73 312 188 527 495 603 857 19 89 26 340 12 430 -74 488 -415 894 -873
1043 -195 63 -425 81 -620 47z"/>
<path d="M1205 2202 c-11 -2 -35 -15 -53 -29 -88 -66 -84 -189 8 -250 92 -63
230 11 232 124 1 96 -93 175 -187 155z m93 -97 c26 -32 22 -89 -7 -119 l-21
-20 -22 22 c-29 28 -31 91 -4 121 24 27 30 26 54 -4z"/>
<path d="M1947 1984 c-9 -9 23 -62 42 -69 8 -3 21 0 28 8 12 11 10 18 -7 40
-20 26 -49 35 -63 21z"/>
</g>
</svg>
