<?xml version="1.0" encoding="UTF-8"?><svg id="Layer_2" xmlns="http://www.w3.org/2000/svg" viewBox="0 0 363.896 363.896"><defs><style>.cls-1{fill:none;}.cls-2{fill:#fff;}.cls-3{fill:#ff6e37;}.cls-4{fill:#babd00;}.cls-5{fill:#3c413c;}.cls-6{fill:#606e37;}.cls-7{fill:#829500;}</style></defs><g id="Layer_1-2"><g><path class="cls-1" d="M293.172,112.395c1.337-4.921,1.849-9.899,1.214-14.708-2.582-19.575-21.375-26.622-38.567-28.438-5.609-.594-12.304-1.035-19.898-1.176-1.34-11.035-10.742-19.59-22.133-19.59-6.203,0-11.809,2.532-15.851,6.614-5.911-7-14.754-11.45-24.633-11.45-17.797,0-32.227,14.43-32.227,32.227,0,1.859,.156,3.672,.457,5.441l-1.465,12.723C70.374,123.684,32.543,159.031,2.671,213.124c6.239,36.128,23.125,68.609,47.32,94.088C-2.529,225.791,195.605,116.109,293.172,112.395Zm-10.146-23.404c1.481,1.473,1.489,3.867,.016,5.348-1.473,1.48-3.867,1.488-5.348,.015-9.285-9.281-3.925-14.613,5.332-5.363Zm-109.722-34.726c11.933,0,21.609,9.675,21.609,21.609s-9.676,21.613-21.609,21.613-21.614-9.676-21.614-21.613,9.676-21.609,21.614-21.609Z"/><path class="cls-1" d="M177.522,87.55c4.098-2.274,6.872-6.653,6.872-11.672s-2.774-9.399-6.872-11.68c-4.097,2.281-6.875,6.656-6.875,11.68s2.778,9.398,6.875,11.672Z"/><path class="cls-4" d="M128.842,356.014c-1.349-5.917-2.448-11.966-3.242-18.147-1.063-8.226-1.614-16.476-1.614-24.691,0-99.679,99.821-183.999,165.033-190.163,1.752-3.449,3.174-7.017,4.152-10.617C195.605,116.109-2.529,225.791,49.991,307.212c21.361,22.495,48.415,39.527,78.851,48.801Z"/><path class="cls-7" d="M246.226,329.878c-20.321-26.059-27.598-54.82-26.379-82.102,1.226-27.465,11.027-53.468,24.82-73.8,7.297-10.754,15.703-19.891,24.52-26.762,1.854-1.445,3.711-3.078,5.532-4.859,5.474-5.352,10.611-12.077,14.301-19.343-65.213,6.164-165.033,90.484-165.033,190.163,0,8.215,.551,16.465,1.614,24.691,.793,6.181,1.893,12.23,3.242,18.147,16.801,5.12,34.63,7.883,53.106,7.883,28.264,0,55.022-6.444,78.886-17.944-5.472-5.221-10.334-10.587-14.608-16.074Z"/><path class="cls-6" d="M283.042,94.339c1.721-1.639,1.476-3.79-.016-5.348-9.052-9.451-14.617-3.918-5.332,5.363,1.481,1.473,3.836,1.425,5.348-.015Z"/><path class="cls-3" d="M173.304,97.487c11.933,0,21.609-9.676,21.609-21.613s-9.676-21.609-21.609-21.609-21.614,9.675-21.614,21.609,9.676,21.613,21.614,21.613Z"/><path class="cls-5" d="M89.167,102.577c17.688-9.234,35.352-16.144,52.367-21.262-.301-1.769-.457-3.582-.457-5.441,0-17.797,14.43-32.227,32.227-32.227,9.879,0,18.722,4.45,24.633,11.45,4.042-4.082,9.648-6.614,15.851-6.614,11.391,0,20.793,8.555,22.133,19.59,7.594,.141,14.289,.582,19.898,1.176,17.192,1.816,35.985,8.863,38.567,28.438,.635,4.808,.123,9.787-1.214,14.708-.979,3.601-2.401,7.169-4.152,10.617-3.691,7.266-8.827,13.992-14.301,19.343-1.821,1.781-3.678,3.414-5.532,4.859-8.817,6.871-17.223,16.008-24.52,26.762-13.793,20.332-23.594,46.335-24.82,73.8-1.219,27.282,6.058,56.043,26.379,82.102,4.274,5.487,9.137,10.853,14.608,16.074,60.981-29.385,103.062-91.78,103.062-164.004C363.896,81.461,282.435,0,181.948,0,84.055,0,4.232,77.312,.175,174.207c27.556-32.637,58.305-55.62,88.991-71.63Z"/><path class="cls-4" d="M140.069,94.038l1.465-12.723c-17.015,5.118-34.679,12.028-52.367,21.262C58.48,118.587,27.731,141.57,.175,174.207c-.108,2.568-.175,5.147-.175,7.741,0,10.631,.921,21.045,2.671,31.176,29.872-54.094,67.703-89.441,137.398-119.086Z"/></g><circle class="cls-2" cx="176.262" cy="77.576" r="6.509"/></g></svg>